{
	"asset":{
		"generator":"Khronos glTF Blender I/O v3.6.27",
		"version":"2.0"
	},
	"scene":0,
	"scenes":[
		{
			"name":"Scene",
			"nodes":[
				0,
				1,
				2,
				3,
				4,
				5
			]
		}
	],
	"nodes":[
		{
			"mesh":0,
			"name":"Mesh_0000out",
			"rotation":[
				0.7071068286895752,
				0,
				0,
				0.7071068286895752
			]
		},
		{
			"mesh":1,
			"name":"Mesh_0001out",
			"rotation":[
				0.7071068286895752,
				0,
				0,
				0.7071068286895752
			]
		},
		{
			"mesh":2,
			"name":"Mesh_0002out",
			"rotation":[
				0.7071068286895752,
				0,
				0,
				0.7071068286895752
			]
		},
		{
			"mesh":3,
			"name":"Mesh_0003out",
			"rotation":[
				0.7071068286895752,
				0,
				0,
				0.7071068286895752
			]
		},
		{
			"mesh":4,
			"name":"Mesh_0004out",
			"rotation":[
				0.7071068286895752,
				0,
				0,
				0.7071068286895752
			]
		},
		{
			"mesh":5,
			"name":"Mesh_0005out",
			"rotation":[
				0.7071068286895752,
				0,
				0,
				0.7071068286895752
			]
		}
	],
	"materials":[
		{
			"doubleSided":true,
			"name":"Tex_0000_0.dds",
			"pbrMetallicRoughness":{
				"baseColorTexture":{
					"index":0
				},
				"metallicFactor":0,
				"roughnessFactor":0.525658369064331
			}
		},
		{
			"doubleSided":true,
			"name":"Tex_0004_0.dds.001",
			"pbrMetallicRoughness":{
				"baseColorTexture":{
					"index":1
				},
				"metallicFactor":0,
				"roughnessFactor":0.525658369064331
			}
		},
		{
			"doubleSided":true,
			"name":"Tex_0010_0.dds",
			"pbrMetallicRoughness":{
				"baseColorTexture":{
					"index":2
				},
				"metallicFactor":0,
				"roughnessFactor":0.525658369064331
			}
		},
		{
			"doubleSided":true,
			"name":"Tex_0012_0.dds",
			"pbrMetallicRoughness":{
				"baseColorTexture":{
					"index":3
				},
				"metallicFactor":0,
				"roughnessFactor":0.525658369064331
			}
		}
	],
	"meshes":[
		{
			"name":"Mesh_0000out",
			"primitives":[
				{
					"attributes":{
						"POSITION":0,
						"NORMAL":1,
						"TEXCOORD_0":2
					},
					"indices":3,
					"material":0
				}
			]
		},
		{
			"name":"Mesh_0001out",
			"primitives":[
				{
					"attributes":{
						"POSITION":4,
						"NORMAL":5,
						"TEXCOORD_0":6
					},
					"indices":7,
					"material":1
				}
			]
		},
		{
			"name":"Mesh_0002out",
			"primitives":[
				{
					"attributes":{
						"POSITION":8,
						"NORMAL":9,
						"TEXCOORD_0":10
					},
					"indices":11,
					"material":1
				}
			]
		},
		{
			"name":"Mesh_0003out",
			"primitives":[
				{
					"attributes":{
						"POSITION":12,
						"NORMAL":13,
						"TEXCOORD_0":14
					},
					"indices":15,
					"material":1
				}
			]
		},
		{
			"name":"Mesh_0004out",
			"primitives":[
				{
					"attributes":{
						"POSITION":16,
						"NORMAL":17,
						"TEXCOORD_0":18
					},
					"indices":19,
					"material":2
				}
			]
		},
		{
			"name":"Mesh_0005out",
			"primitives":[
				{
					"attributes":{
						"POSITION":20,
						"NORMAL":21,
						"TEXCOORD_0":22
					},
					"indices":23,
					"material":3
				}
			]
		}
	],
	"textures":[
		{
			"sampler":0,
			"source":0
		},
		{
			"sampler":0,
			"source":1
		},
		{
			"sampler":0,
			"source":2
		},
		{
			"sampler":0,
			"source":3
		}
	],
	"images":[
		{
			"bufferView":4,
			"mimeType":"image/png",
			"name":"aqelj-8gh1r (2)"
		},
		{
			"bufferView":9,
			"mimeType":"image/png",
			"name":"Tex_0004_0 (2)"
		},
		{
			"bufferView":22,
			"mimeType":"image/png",
			"name":"Tex_0010_0 (2)"
		},
		{
			"bufferView":27,
			"mimeType":"image/jpeg",
			"name":"Tex_0009_0 (2)"
		}
	],
	"accessors":[
		{
			"bufferView":0,
			"componentType":5126,
			"count":2302,
			"max":[
				0.09240300208330154,
				0.36751100420951843,
				-0.0027660001069307327
			],
			"min":[
				-0.09236499667167664,
				-0.10901399701833725,
				-0.34537801146507263
			],
			"type":"VEC3"
		},
		{
			"bufferView":1,
			"componentType":5126,
			"count":2302,
			"type":"VEC3"
		},
		{
			"bufferView":2,
			"componentType":5126,
			"count":2302,
			"type":"VEC2"
		},
		{
			"bufferView":3,
			"componentType":5123,
			"count":5610,
			"type":"SCALAR"
		},
		{
			"bufferView":5,
			"componentType":5126,
			"count":1088,
			"max":[
				0.12123999744653702,
				0.40688198804855347,
				-0.2197510004043579
			],
			"min":[
				-0.09540899842977524,
				0.09469100087881088,
				-0.521232008934021
			],
			"type":"VEC3"
		},
		{
			"bufferView":6,
			"componentType":5126,
			"count":1088,
			"type":"VEC3"
		},
		{
			"bufferView":7,
			"componentType":5126,
			"count":1088,
			"type":"VEC2"
		},
		{
			"bufferView":8,
			"componentType":5123,
			"count":5298,
			"type":"SCALAR"
		},
		{
			"bufferView":10,
			"componentType":5126,
			"count":106,
			"max":[
				0.17451100051403046,
				0.235276997089386,
				-0.22628100216388702
			],
			"min":[
				0.02769099920988083,
				0.14038099348545074,
				-0.5483599901199341
			],
			"type":"VEC3"
		},
		{
			"bufferView":11,
			"componentType":5126,
			"count":106,
			"type":"VEC3"
		},
		{
			"bufferView":12,
			"componentType":5126,
			"count":106,
			"type":"VEC2"
		},
		{
			"bufferView":13,
			"componentType":5123,
			"count":477,
			"type":"SCALAR"
		},
		{
			"bufferView":14,
			"componentType":5126,
			"count":835,
			"max":[
				0.018427999690175056,
				0.3803560137748718,
				-0.17509199678897858
			],
			"min":[
				-0.17466600239276886,
				0.13475799560546875,
				-0.5483599901199341
			],
			"type":"VEC3"
		},
		{
			"bufferView":15,
			"componentType":5126,
			"count":835,
			"type":"VEC3"
		},
		{
			"bufferView":16,
			"componentType":5126,
			"count":835,
			"type":"VEC2"
		},
		{
			"bufferView":17,
			"componentType":5123,
			"count":3573,
			"type":"SCALAR"
		},
		{
			"bufferView":18,
			"componentType":5126,
			"count":2011,
			"max":[
				0.09678400307893753,
				0.18357299268245697,
				0.0017819999484345317
			],
			"min":[
				-0.09678000211715698,
				-0.4300920069217682,
				-0.34265899658203125
			],
			"type":"VEC3"
		},
		{
			"bufferView":19,
			"componentType":5126,
			"count":2011,
			"type":"VEC3"
		},
		{
			"bufferView":20,
			"componentType":5126,
			"count":2011,
			"type":"VEC2"
		},
		{
			"bufferView":21,
			"componentType":5123,
			"count":10266,
			"type":"SCALAR"
		},
		{
			"bufferView":23,
			"componentType":5126,
			"count":553,
			"max":[
				0.07480199635028839,
				0.31932398676872253,
				-0.3389439880847931
			],
			"min":[
				-0.07495799660682678,
				0.2587699890136719,
				-0.40720099210739136
			],
			"type":"VEC3"
		},
		{
			"bufferView":24,
			"componentType":5126,
			"count":553,
			"type":"VEC3"
		},
		{
			"bufferView":25,
			"componentType":5126,
			"count":553,
			"type":"VEC2"
		},
		{
			"bufferView":26,
			"componentType":5123,
			"count":2535,
			"type":"SCALAR"
		}
	],
	"bufferViews":[
		{
			"buffer":0,
			"byteLength":27624,
			"byteOffset":0,
			"target":34962
		},
		{
			"buffer":0,
			"byteLength":27624,
			"byteOffset":27624,
			"target":34962
		},
		{
			"buffer":0,
			"byteLength":18416,
			"byteOffset":55248,
			"target":34962
		},
		{
			"buffer":0,
			"byteLength":11220,
			"byteOffset":73664,
			"target":34963
		},
		{
			"buffer":0,
			"byteLength":20242,
			"byteOffset":84884
		},
		{
			"buffer":0,
			"byteLength":13056,
			"byteOffset":105128,
			"target":34962
		},
		{
			"buffer":0,
			"byteLength":13056,
			"byteOffset":118184,
			"target":34962
		},
		{
			"buffer":0,
			"byteLength":8704,
			"byteOffset":131240,
			"target":34962
		},
		{
			"buffer":0,
			"byteLength":10596,
			"byteOffset":139944,
			"target":34963
		},
		{
			"buffer":0,
			"byteLength":573549,
			"byteOffset":150540
		},
		{
			"buffer":0,
			"byteLength":1272,
			"byteOffset":724092,
			"target":34962
		},
		{
			"buffer":0,
			"byteLength":1272,
			"byteOffset":725364,
			"target":34962
		},
		{
			"buffer":0,
			"byteLength":848,
			"byteOffset":726636,
			"target":34962
		},
		{
			"buffer":0,
			"byteLength":954,
			"byteOffset":727484,
			"target":34963
		},
		{
			"buffer":0,
			"byteLength":10020,
			"byteOffset":728440,
			"target":34962
		},
		{
			"buffer":0,
			"byteLength":10020,
			"byteOffset":738460,
			"target":34962
		},
		{
			"buffer":0,
			"byteLength":6680,
			"byteOffset":748480,
			"target":34962
		},
		{
			"buffer":0,
			"byteLength":7146,
			"byteOffset":755160,
			"target":34963
		},
		{
			"buffer":0,
			"byteLength":24132,
			"byteOffset":762308,
			"target":34962
		},
		{
			"buffer":0,
			"byteLength":24132,
			"byteOffset":786440,
			"target":34962
		},
		{
			"buffer":0,
			"byteLength":16088,
			"byteOffset":810572,
			"target":34962
		},
		{
			"buffer":0,
			"byteLength":20532,
			"byteOffset":826660,
			"target":34963
		},
		{
			"buffer":0,
			"byteLength":321938,
			"byteOffset":847192
		},
		{
			"buffer":0,
			"byteLength":6636,
			"byteOffset":1169132,
			"target":34962
		},
		{
			"buffer":0,
			"byteLength":6636,
			"byteOffset":1175768,
			"target":34962
		},
		{
			"buffer":0,
			"byteLength":4424,
			"byteOffset":1182404,
			"target":34962
		},
		{
			"buffer":0,
			"byteLength":5070,
			"byteOffset":1186828,
			"target":34963
		},
		{
			"buffer":0,
			"byteLength":37151,
			"byteOffset":1191900
		}
	],
	"samplers":[
		{
			"magFilter":9729,
			"minFilter":9987
		}
	],
	"buffers":[
		{
			"byteLength":1229052,
			"uri":"data:application/octet-stream;base64,"
		}
	]
}
